<svg width="100" height="100" viewBox="0 0 100 100" xmlns="http://www.w3.org/2000/svg">
  <!-- Axolotl 1 - Pink festive axolotl -->
  <defs>
    <radialGradient id="bg13" cx="50%" cy="50%" r="50%">
      <stop offset="0%" style="stop-color:#2d1b2d"/>
      <stop offset="100%" style="stop-color:#1a0d1a"/>
    </radialGradient>
  </defs>
  
  <!-- Background -->
  <rect width="100" height="100" fill="url(#bg13)" rx="8"/>
  
  <!-- Main body -->
  <ellipse cx="50" cy="55" rx="25" ry="15" fill="#ff6b35"/>
  
  <!-- Head -->
  <ellipse cx="50" cy="40" rx="18" ry="15" fill="#ff6b35"/>
  
  <!-- External gills -->
  <path d="M32 35 Q25 30 30 25 Q35 30 32 35" fill="#8b4a9c"/>
  <path d="M68 35 Q75 30 70 25 Q65 30 68 35" fill="#8b4a9c"/>
  <path d="M30 40 Q20 38 25 33 Q30 38 30 40" fill="#8b4a9c"/>
  <path d="M70 40 Q80 38 75 33 Q70 38 70 40" fill="#8b4a9c"/>
  
  <!-- Eyes -->
  <circle cx="44" cy="38" r="4" fill="#1a0d1a"/>
  <circle cx="56" cy="38" r="4" fill="#1a0d1a"/>
  <circle cx="45" cy="37" r="2" fill="#f4f4f4"/>
  <circle cx="57" cy="37" r="2" fill="#f4f4f4"/>
  
  <!-- Mouth -->
  <path d="M45 45 Q50 48 55 45" stroke="#1a0d1a" stroke-width="2" fill="none"/>
  
  <!-- Legs -->
  <ellipse cx="35" cy="65" rx="5" ry="8" fill="#ff6b35"/>
  <ellipse cx="65" cy="65" rx="5" ry="8" fill="#ff6b35"/>
  <ellipse cx="40" cy="60" rx="4" ry="6" fill="#ff6b35"/>
  <ellipse cx="60" cy="60" rx="4" ry="6" fill="#ff6b35"/>
  
  <!-- Tail -->
  <ellipse cx="50" cy="75" rx="15" ry="8" fill="#ff6b35"/>
  <path d="M35 75 Q30 70 35 65" stroke="#8b4a9c" stroke-width="2" fill="none"/>
  <path d="M65 75 Q70 70 65 65" stroke="#8b4a9c" stroke-width="2" fill="none"/>
  
  <!-- Festive decorations -->
  <circle cx="50" cy="25" r="3" fill="#8b4a9c"/>
  <circle cx="45" cy="28" r="2" fill="#f4f4f4"/>
  <circle cx="55" cy="28" r="2" fill="#f4f4f4"/>
  
  <!-- Spots -->
  <circle cx="40" cy="50" r="2" fill="#8b4a9c"/>
  <circle cx="60" cy="50" r="2" fill="#8b4a9c"/>
  <circle cx="50" cy="60" r="2" fill="#8b4a9c"/>
</svg>