<svg width="100" height="100" viewBox="0 0 100 100" xmlns="http://www.w3.org/2000/svg">
  <!-- Axolotl 2 - Purple festive axolotl -->
  <defs>
    <radialGradient id="bg14" cx="50%" cy="50%" r="50%">
      <stop offset="0%" style="stop-color:#2d1b2d"/>
      <stop offset="100%" style="stop-color:#1a0d1a"/>
    </radialGradient>
  </defs>
  
  <!-- Background -->
  <rect width="100" height="100" fill="url(#bg14)" rx="8"/>
  
  <!-- Main body -->
  <ellipse cx="50" cy="55" rx="26" ry="16" fill="#8b4a9c"/>
  
  <!-- Head -->
  <ellipse cx="50" cy="38" rx="19" ry="16" fill="#8b4a9c"/>
  
  <!-- External gills (more elaborate) -->
  <path d="M31 32 Q22 25 28 20 Q34 25 31 32" fill="#ff6b35"/>
  <path d="M69 32 Q78 25 72 20 Q66 25 69 32" fill="#ff6b35"/>
  <path d="M28 38 Q18 35 23 28 Q28 35 28 38" fill="#ff6b35"/>
  <path d="M72 38 Q82 35 77 28 Q72 35 72 38" fill="#ff6b35"/>
  <path d="M33 45 Q25 42 30 35 Q35 42 33 45" fill="#ff6b35"/>
  <path d="M67 45 Q75 42 70 35 Q65 42 67 45" fill="#ff6b35"/>
  
  <!-- Eyes -->
  <circle cx="43" cy="36" r="5" fill="#1a0d1a"/>
  <circle cx="57" cy="36" r="5" fill="#1a0d1a"/>
  <circle cx="44" cy="34" r="2" fill="#f4f4f4"/>
  <circle cx="58" cy="34" r="2" fill="#f4f4f4"/>
  
  <!-- Mouth -->
  <path d="M44 44 Q50 48 56 44" stroke="#1a0d1a" stroke-width="2" fill="none"/>
  
  <!-- Legs -->
  <ellipse cx="33" cy="67" rx="6" ry="9" fill="#8b4a9c"/>
  <ellipse cx="67" cy="67" rx="6" ry="9" fill="#8b4a9c"/>
  <ellipse cx="39" cy="62" rx="5" ry="7" fill="#8b4a9c"/>
  <ellipse cx="61" cy="62" rx="5" ry="7" fill="#8b4a9c"/>
  
  <!-- Tail with fin -->
  <ellipse cx="50" cy="77" rx="18" ry="10" fill="#8b4a9c"/>
  <path d="M32 77 Q25 72 32 67 Q35 72 32 77" fill="#ff6b35"/>
  <path d="M68 77 Q75 72 68 67 Q65 72 68 77" fill="#ff6b35"/>
  
  <!-- Festive hat -->
  <path d="M50 20 L45 10 L55 10 Z" fill="#ff6b35"/>
  <circle cx="50" cy="10" r="2" fill="#f4f4f4"/>
  
  <!-- Spots and patterns -->
  <circle cx="38" cy="48" r="2" fill="#ff6b35"/>
  <circle cx="62" cy="48" r="2" fill="#ff6b35"/>
  <circle cx="50" cy="58" r="2" fill="#ff6b35"/>
  <circle cx="45" cy="65" r="2" fill="#ff6b35"/>
  <circle cx="55" cy="65" r="2" fill="#ff6b35"/>
</svg>