<svg width="100" height="100" viewBox="0 0 100 100" xmlns="http://www.w3.org/2000/svg">
  <!-- Catrina 4 - Skeleton with feathered hat -->
  <defs>
    <radialGradient id="bg4" cx="50%" cy="50%" r="50%">
      <stop offset="0%" style="stop-color:#2d1b2d"/>
      <stop offset="100%" style="stop-color:#1a0d1a"/>
    </radialGradient>
  </defs>
  
  <!-- Background -->
  <rect width="100" height="100" fill="url(#bg4)" rx="8"/>
  
  <!-- Feathered hat -->
  <ellipse cx="50" cy="22" rx="22" ry="6" fill="#1a0d1a"/>
  <rect x="32" y="18" width="36" height="8" fill="#1a0d1a"/>
  <!-- Feathers -->
  <path d="M35 18 Q30 10 35 5" stroke="#ff6b35" stroke-width="3" fill="none"/>
  <path d="M45 18 Q40 8 45 3" stroke="#8b4a9c" stroke-width="3" fill="none"/>
  <path d="M55 18 Q60 8 55 3" stroke="#ff6b35" stroke-width="3" fill="none"/>
  <path d="M65 18 Q70 10 65 5" stroke="#8b4a9c" stroke-width="3" fill="none"/>
  
  <!-- Skull -->
  <ellipse cx="50" cy="50" rx="18" ry="20" fill="#f4f4f4"/>
  
  <!-- Eye sockets with stars -->
  <path d="M43 40 L41 43 L38 43 L40 45 L39 48 L43 46 L47 48 L46 45 L48 43 L45 43 Z" fill="#8b4a9c"/>
  <path d="M57 40 L55 43 L52 43 L54 45 L53 48 L57 46 L61 48 L60 45 L62 43 L59 43 Z" fill="#8b4a9c"/>
  
  <!-- Nose -->
  <path d="M50 50 L47 56 L53 56 Z" fill="#1a0d1a"/>
  
  <!-- Grinning mouth -->
  <path d="M40 60 Q50 68 60 60" stroke="#1a0d1a" stroke-width="2" fill="none"/>
  <rect x="42" y="60" width="2" height="6" fill="#1a0d1a"/>
  <rect x="46" y="60" width="2" height="6" fill="#1a0d1a"/>
  <rect x="50" y="60" width="2" height="6" fill="#1a0d1a"/>
  <rect x="54" y="60" width="2" height="6" fill="#1a0d1a"/>
  <rect x="58" y="60" width="2" height="6" fill="#1a0d1a"/>
  
  <!-- Bow tie -->
  <path d="M45 70 L40 75 L45 80 L50 75 L55 80 L60 75 L55 70 L50 75 Z" fill="#ff6b35"/>
  
  <!-- Suit -->
  <rect x="35" y="80" width="30" height="15" fill="#2d1b2d"/>
</svg>