<svg width="100" height="100" viewBox="0 0 100 100" xmlns="http://www.w3.org/2000/svg">
  <!-- Catrina 1 - Elegant lady skeleton with hat -->
  <defs>
    <radialGradient id="bg1" cx="50%" cy="50%" r="50%">
      <stop offset="0%" style="stop-color:#2d1b2d"/>
      <stop offset="100%" style="stop-color:#1a0d1a"/>
    </radialGradient>
  </defs>
  
  <!-- Background -->
  <rect width="100" height="100" fill="url(#bg1)" rx="8"/>
  
  <!-- Hat -->
  <ellipse cx="50" cy="25" rx="25" ry="8" fill="#ff6b35"/>
  <rect x="30" y="20" width="40" height="15" fill="#ff6b35"/>
  <circle cx="50" cy="27" r="3" fill="#8b4a9c"/>
  
  <!-- Skull -->
  <ellipse cx="50" cy="45" rx="18" ry="20" fill="#f4f4f4"/>
  
  <!-- Eye sockets -->
  <ellipse cx="43" cy="40" rx="4" ry="6" fill="#1a0d1a"/>
  <ellipse cx="57" cy="40" rx="4" ry="6" fill="#1a0d1a"/>
  
  <!-- Nose -->
  <path d="M50 48 L47 55 L53 55 Z" fill="#1a0d1a"/>
  
  <!-- Mouth -->
  <path d="M42 58 Q50 65 58 58" stroke="#1a0d1a" stroke-width="2" fill="none"/>
  <rect x="45" y="58" width="2" height="6" fill="#1a0d1a"/>
  <rect x="48" y="58" width="2" height="6" fill="#1a0d1a"/>
  <rect x="51" y="58" width="2" height="6" fill="#1a0d1a"/>
  <rect x="54" y="58" width="2" height="6" fill="#1a0d1a"/>
  
  <!-- Decorative flowers -->
  <circle cx="35" cy="35" r="3" fill="#ff6b35"/>
  <circle cx="65" cy="35" r="3" fill="#ff6b35"/>
  
  <!-- Dress collar -->
  <rect x="35" y="65" width="30" height="20" fill="#8b4a9c"/>
  <circle cx="40" cy="75" r="2" fill="#ff6b35"/>
  <circle cx="50" cy="75" r="2" fill="#ff6b35"/>
  <circle cx="60" cy="75" r="2" fill="#ff6b35"/>
</svg>