<svg width="100" height="100" viewBox="0 0 100 100" xmlns="http://www.w3.org/2000/svg">
  <!-- Catrina 3 - Skeleton with veil -->
  <defs>
    <radialGradient id="bg3" cx="50%" cy="50%" r="50%">
      <stop offset="0%" style="stop-color:#2d1b2d"/>
      <stop offset="100%" style="stop-color:#1a0d1a"/>
    </radialGradient>
  </defs>
  
  <!-- Background -->
  <rect width="100" height="100" fill="url(#bg3)" rx="8"/>
  
  <!-- Veil -->
  <path d="M25 15 Q50 10 75 15 Q70 25 65 35 Q50 30 35 35 Q30 25 25 15" fill="#8b4a9c" opacity="0.8"/>
  
  <!-- Skull -->
  <ellipse cx="50" cy="48" rx="19" ry="21" fill="#f4f4f4"/>
  
  <!-- Eye sockets with diamonds -->
  <path d="M43 40 L40 43 L43 46 L46 43 Z" fill="#ff6b35"/>
  <path d="M57 40 L54 43 L57 46 L60 43 Z" fill="#ff6b35"/>
  
  <!-- Nose -->
  <ellipse cx="50" cy="52" rx="3" ry="5" fill="#1a0d1a"/>
  
  <!-- Mouth with stitches -->
  <line x1="42" y1="60" x2="58" y2="60" stroke="#1a0d1a" stroke-width="2"/>
  <line x1="44" y1="58" x2="44" y2="62" stroke="#1a0d1a" stroke-width="1"/>
  <line x1="48" y1="58" x2="48" y2="62" stroke="#1a0d1a" stroke-width="1"/>
  <line x1="52" y1="58" x2="52" y2="62" stroke="#1a0d1a" stroke-width="1"/>
  <line x1="56" y1="58" x2="56" y2="62" stroke="#1a0d1a" stroke-width="1"/>
  
  <!-- Cheek decorations -->
  <circle cx="35" cy="50" r="2" fill="#ff6b35"/>
  <circle cx="65" cy="50" r="2" fill="#ff6b35"/>
  
  <!-- Dress -->
  <rect x="32" y="69" width="36" height="25" fill="#2d1b2d"/>
  <circle cx="40" cy="78" r="2" fill="#ff6b35"/>
  <circle cx="50" cy="78" r="2" fill="#8b4a9c"/>
  <circle cx="60" cy="78" r="2" fill="#ff6b35"/>
</svg>