<svg width="100" height="100" viewBox="0 0 100 100" xmlns="http://www.w3.org/2000/svg">
  <!-- Marigold 1 - Single large flower -->
  <defs>
    <radialGradient id="bg15" cx="50%" cy="50%" r="50%">
      <stop offset="0%" style="stop-color:#2d1b2d"/>
      <stop offset="100%" style="stop-color:#1a0d1a"/>
    </radialGradient>
    <radialGradient id="flower1" cx="50%" cy="50%" r="50%">
      <stop offset="0%" style="stop-color:#ff6b35"/>
      <stop offset="100%" style="stop-color:#8b4a9c"/>
    </radialGradient>
  </defs>
  
  <!-- Background -->
  <rect width="100" height="100" fill="url(#bg15)" rx="8"/>
  
  <!-- Stem -->
  <rect x="48" y="60" width="4" height="35" fill="#2d1b2d"/>
  
  <!-- Leaves -->
  <ellipse cx="40" cy="70" rx="8" ry="4" fill="#2d1b2d" transform="rotate(-30 40 70)"/>
  <ellipse cx="60" cy="75" rx="8" ry="4" fill="#2d1b2d" transform="rotate(30 60 75)"/>
  
  <!-- Outer petals -->
  <ellipse cx="50" cy="40" rx="25" ry="8" fill="url(#flower1)" transform="rotate(0 50 40)"/>
  <ellipse cx="50" cy="40" rx="25" ry="8" fill="url(#flower1)" transform="rotate(30 50 40)"/>
  <ellipse cx="50" cy="40" rx="25" ry="8" fill="url(#flower1)" transform="rotate(60 50 40)"/>
  <ellipse cx="50" cy="40" rx="25" ry="8" fill="url(#flower1)" transform="rotate(90 50 40)"/>
  <ellipse cx="50" cy="40" rx="25" ry="8" fill="url(#flower1)" transform="rotate(120 50 40)"/>
  <ellipse cx="50" cy="40" rx="25" ry="8" fill="url(#flower1)" transform="rotate(150 50 40)"/>
  
  <!-- Inner petals -->
  <ellipse cx="50" cy="40" rx="18" ry="6" fill="#ff6b35" transform="rotate(15 50 40)"/>
  <ellipse cx="50" cy="40" rx="18" ry="6" fill="#ff6b35" transform="rotate(45 50 40)"/>
  <ellipse cx="50" cy="40" rx="18" ry="6" fill="#ff6b35" transform="rotate(75 50 40)"/>
  <ellipse cx="50" cy="40" rx="18" ry="6" fill="#ff6b35" transform="rotate(105 50 40)"/>
  <ellipse cx="50" cy="40" rx="18" ry="6" fill="#ff6b35" transform="rotate(135 50 40)"/>
  <ellipse cx="50" cy="40" rx="18" ry="6" fill="#ff6b35" transform="rotate(165 50 40)"/>
  
  <!-- Center -->
  <circle cx="50" cy="40" r="8" fill="#8b4a9c"/>
  <circle cx="50" cy="40" r="5" fill="#2d1b2d"/>
  
  <!-- Small decorative elements -->
  <circle cx="45" cy="35" r="2" fill="#f4f4f4"/>
  <circle cx="55" cy="35" r="2" fill="#f4f4f4"/>
  <circle cx="50" cy="30" r="2" fill="#f4f4f4"/>
</svg>