<svg width="100" height="100" viewBox="0 0 100 100" xmlns="http://www.w3.org/2000/svg">
  <!-- Marigold 2 - Cluster of flowers -->
  <defs>
    <radialGradient id="bg16" cx="50%" cy="50%" r="50%">
      <stop offset="0%" style="stop-color:#2d1b2d"/>
      <stop offset="100%" style="stop-color:#1a0d1a"/>
    </radialGradient>
  </defs>
  
  <!-- Background -->
  <rect width="100" height="100" fill="url(#bg16)" rx="8"/>
  
  <!-- Stems -->
  <rect x="35" y="65" width="3" height="30" fill="#2d1b2d"/>
  <rect x="48" y="70" width="3" height="25" fill="#2d1b2d"/>
  <rect x="62" y="68" width="3" height="27" fill="#2d1b2d"/>
  
  <!-- Leaves -->
  <ellipse cx="30" cy="75" rx="6" ry="3" fill="#2d1b2d" transform="rotate(-45 30 75)"/>
  <ellipse cx="45" cy="80" rx="6" ry="3" fill="#2d1b2d" transform="rotate(0 45 80)"/>
  <ellipse cx="70" cy="78" rx="6" ry="3" fill="#2d1b2d" transform="rotate(45 70 78)"/>
  
  <!-- Large flower (left) -->
  <circle cx="37" cy="45" r="15" fill="#ff6b35"/>
  <!-- Petals -->
  <ellipse cx="37" cy="35" rx="8" ry="3" fill="#ff6b35"/>
  <ellipse cx="47" cy="40" rx="8" ry="3" fill="#ff6b35" transform="rotate(45 47 40)"/>
  <ellipse cx="47" cy="50" rx="8" ry="3" fill="#ff6b35" transform="rotate(90 47 50)"/>
  <ellipse cx="37" cy="55" rx="8" ry="3" fill="#ff6b35"/>
  <ellipse cx="27" cy="50" rx="8" ry="3" fill="#ff6b35" transform="rotate(-90 27 50)"/>
  <ellipse cx="27" cy="40" rx="8" ry="3" fill="#ff6b35" transform="rotate(-45 27 40)"/>
  <!-- Center -->
  <circle cx="37" cy="45" r="5" fill="#8b4a9c"/>
  
  <!-- Medium flower (center) -->
  <circle cx="50" cy="35" r="12" fill="#ff6b35"/>
  <!-- Petals -->
  <ellipse cx="50" cy="27" rx="6" ry="2" fill="#ff6b35"/>
  <ellipse cx="58" cy="30" rx="6" ry="2" fill="#ff6b35" transform="rotate(45 58 30)"/>
  <ellipse cx="58" cy="40" rx="6" ry="2" fill="#ff6b35" transform="rotate(90 58 40)"/>
  <ellipse cx="50" cy="43" rx="6" ry="2" fill="#ff6b35"/>
  <ellipse cx="42" cy="40" rx="6" ry="2" fill="#ff6b35" transform="rotate(-90 42 40)"/>
  <ellipse cx="42" cy="30" rx="6" ry="2" fill="#ff6b35" transform="rotate(-45 42 30)"/>
  <!-- Center -->
  <circle cx="50" cy="35" r="4" fill="#8b4a9c"/>
  
  <!-- Small flower (right) -->
  <circle cx="63" cy="50" r="10" fill="#ff6b35"/>
  <!-- Petals -->
  <ellipse cx="63" cy="44" rx="5" ry="2" fill="#ff6b35"/>
  <ellipse cx="69" cy="47" rx="5" ry="2" fill="#ff6b35" transform="rotate(45 69 47)"/>
  <ellipse cx="69" cy="53" rx="5" ry="2" fill="#ff6b35" transform="rotate(90 69 53)"/>
  <ellipse cx="63" cy="56" rx="5" ry="2" fill="#ff6b35"/>
  <ellipse cx="57" cy="53" rx="5" ry="2" fill="#ff6b35" transform="rotate(-90 57 53)"/>
  <ellipse cx="57" cy="47" rx="5" ry="2" fill="#ff6b35" transform="rotate(-45 57 47)"/>
  <!-- Center -->
  <circle cx="63" cy="50" r="3" fill="#8b4a9c"/>
  
  <!-- Small buds -->
  <circle cx="25" cy="30" r="4" fill="#8b4a9c"/>
  <circle cx="75" cy="35" r="4" fill="#8b4a9c"/>
  <circle cx="20" cy="60" r="3" fill="#ff6b35"/>
  <circle cx="80" cy="65" r="3" fill="#ff6b35"/>
</svg>