<svg width="100" height="100" viewBox="0 0 100 100" xmlns="http://www.w3.org/2000/svg">
  <!-- Ofrenda 4 - Fruit and bread offerings -->
  <defs>
    <radialGradient id="bg12" cx="50%" cy="50%" r="50%">
      <stop offset="0%" style="stop-color:#2d1b2d"/>
      <stop offset="100%" style="stop-color:#1a0d1a"/>
    </radialGradient>
  </defs>
  
  <!-- Background -->
  <rect width="100" height="100" fill="url(#bg12)" rx="8"/>
  
  <!-- Altar table -->
  <rect x="15" y="60" width="70" height="35" fill="#8b4a9c"/>
  
  <!-- Tablecloth pattern -->
  <path d="M20 65 L30 60 L40 65 L50 60 L60 65 L70 60 L80 65" stroke="#ff6b35" stroke-width="2" fill="none"/>
  
  <!-- Large candle in center -->
  <rect x="46" y="35" width="8" height="25" fill="#f4f4f4"/>
  <ellipse cx="50" cy="32" rx="4" ry="6" fill="#ff6b35"/>
  
  <!-- Fruit offerings -->
  <circle cx="25" cy="70" r="5" fill="#ff6b35"/> <!-- Orange -->
  <circle cx="35" cy="72" r="4" fill="#ff6b35"/> <!-- Orange -->
  <ellipse cx="65" cy="70" rx="4" ry="6" fill="#8b4a9c"/> <!-- Banana -->
  <circle cx="75" cy="72" r="4" fill="#ff6b35"/> <!-- Apple -->
  
  <!-- Bread (pan de muerto) -->
  <ellipse cx="50" cy="75" rx="8" ry="6" fill="#ff6b35"/>
  <ellipse cx="50" cy="73" rx="6" ry="4" fill="#2d1b2d"/>
  <!-- Cross pattern on bread -->
  <rect x="47" y="70" width="6" height="2" fill="#ff6b35"/>
  <rect x="49" y="68" width="2" height="6" fill="#ff6b35"/>
  
  <!-- Small flowers -->
  <circle cx="20" cy="80" r="3" fill="#ff6b35"/>
  <circle cx="80" cy="80" r="3" fill="#ff6b35"/>
  <circle cx="30" cy="85" r="2" fill="#ff6b35"/>
  <circle cx="70" cy="85" r="2" fill="#ff6b35"/>
  
  <!-- Water glass -->
  <rect x="18" y="65" width="6" height="8" fill="#f4f4f4" opacity="0.7"/>
  <rect x="19" y="66" width="4" height="6" fill="#8b4a9c" opacity="0.3"/>
  
  <!-- Small decorative skulls -->
  <ellipse cx="40" cy="85" rx="3" ry="4" fill="#f4f4f4"/>
  <ellipse cx="60" cy="85" rx="3" ry="4" fill="#f4f4f4"/>
  <circle cx="38" cy="83" r="1" fill="#1a0d1a"/>
  <circle cx="42" cy="83" r="1" fill="#1a0d1a"/>
  <circle cx="58" cy="83" r="1" fill="#1a0d1a"/>
  <circle cx="62" cy="83" r="1" fill="#1a0d1a"/>
</svg>