<svg width="100" height="100" viewBox="0 0 100 100" xmlns="http://www.w3.org/2000/svg">
  <!-- Ofrenda 1 - Candles and flowers -->
  <defs>
    <radialGradient id="bg9" cx="50%" cy="50%" r="50%">
      <stop offset="0%" style="stop-color:#2d1b2d"/>
      <stop offset="100%" style="stop-color:#1a0d1a"/>
    </radialGradient>
  </defs>
  
  <!-- Background -->
  <rect width="100" height="100" fill="url(#bg9)" rx="8"/>
  
  <!-- Altar base -->
  <rect x="15" y="70" width="70" height="25" fill="#8b4a9c"/>
  
  <!-- Candles -->
  <rect x="25" y="45" width="6" height="25" fill="#f4f4f4"/>
  <rect x="40" y="40" width="6" height="30" fill="#f4f4f4"/>
  <rect x="55" y="45" width="6" height="25" fill="#f4f4f4"/>
  <rect x="70" y="50" width="6" height="20" fill="#f4f4f4"/>
  
  <!-- Flames -->
  <ellipse cx="28" cy="42" rx="3" ry="5" fill="#ff6b35"/>
  <ellipse cx="43" cy="37" rx="3" ry="5" fill="#ff6b35"/>
  <ellipse cx="58" cy="42" rx="3" ry="5" fill="#ff6b35"/>
  <ellipse cx="73" cy="47" rx="3" ry="5" fill="#ff6b35"/>
  
  <!-- Marigold flowers -->
  <circle cx="20" cy="75" r="4" fill="#ff6b35"/>
  <circle cx="18" cy="73" r="2" fill="#ff6b35"/>
  <circle cx="22" cy="73" r="2" fill="#ff6b35"/>
  <circle cx="18" cy="77" r="2" fill="#ff6b35"/>
  <circle cx="22" cy="77" r="2" fill="#ff6b35"/>
  
  <circle cx="80" cy="75" r="4" fill="#ff6b35"/>
  <circle cx="78" cy="73" r="2" fill="#ff6b35"/>
  <circle cx="82" cy="73" r="2" fill="#ff6b35"/>
  <circle cx="78" cy="77" r="2" fill="#ff6b35"/>
  <circle cx="82" cy="77" r="2" fill="#ff6b35"/>
  
  <!-- Incense smoke -->
  <path d="M35 35 Q38 30 35 25 Q32 20 35 15" stroke="#f4f4f4" stroke-width="1" fill="none" opacity="0.6"/>
  <path d="M50 32 Q53 27 50 22 Q47 17 50 12" stroke="#f4f4f4" stroke-width="1" fill="none" opacity="0.6"/>
  
  <!-- Small offerings -->
  <circle cx="50" cy="78" r="3" fill="#2d1b2d"/>
  <rect x="60" y="75" width="6" height="4" fill="#8b4a9c"/>
</svg>