<svg width="100" height="100" viewBox="0 0 100 100" xmlns="http://www.w3.org/2000/svg">
  <!-- Pan de Muerto 1 - Traditional round bread -->
  <defs>
    <radialGradient id="bg17" cx="50%" cy="50%" r="50%">
      <stop offset="0%" style="stop-color:#2d1b2d"/>
      <stop offset="100%" style="stop-color:#1a0d1a"/>
    </radialGradient>
    <radialGradient id="bread1" cx="50%" cy="50%" r="50%">
      <stop offset="0%" style="stop-color:#ff6b35"/>
      <stop offset="100%" style="stop-color:#8b4a9c"/>
    </radialGradient>
  </defs>
  
  <!-- Background -->
  <rect width="100" height="100" fill="url(#bg17)" rx="8"/>
  
  <!-- Main bread base -->
  <ellipse cx="50" cy="55" rx="28" ry="20" fill="url(#bread1)"/>
  
  <!-- Cross pattern on top -->
  <rect x="47" y="35" width="6" height="25" fill="#ff6b35"/>
  <rect x="35" y="52" width="30" height="6" fill="#ff6b35"/>
  
  <!-- Bone decorations -->
  <!-- Horizontal bones -->
  <ellipse cx="35" cy="45" rx="8" ry="3" fill="#ff6b35"/>
  <ellipse cx="65" cy="45" rx="8" ry="3" fill="#ff6b35"/>
  <circle cx="30" cy="45" r="3" fill="#ff6b35"/>
  <circle cx="40" cy="45" r="3" fill="#ff6b35"/>
  <circle cx="60" cy="45" r="3" fill="#ff6b35"/>
  <circle cx="70" cy="45" r="3" fill="#ff6b35"/>
  
  <!-- Vertical bones -->
  <ellipse cx="50" cy="35" rx="3" ry="8" fill="#ff6b35"/>
  <ellipse cx="50" cy="65" rx="3" ry="8" fill="#ff6b35"/>
  <circle cx="50" cy="30" r="3" fill="#ff6b35"/>
  <circle cx="50" cy="40" r="3" fill="#ff6b35"/>
  <circle cx="50" cy="60" r="3" fill="#ff6b35"/>
  <circle cx="50" cy="70" r="3" fill="#ff6b35"/>
  
  <!-- Central knob -->
  <circle cx="50" cy="52" r="5" fill="#ff6b35"/>
  
  <!-- Sesame seeds -->
  <ellipse cx="42" cy="48" rx="1" ry="2" fill="#f4f4f4"/>
  <ellipse cx="58" cy="48" rx="1" ry="2" fill="#f4f4f4"/>
  <ellipse cx="46" cy="58" rx="1" ry="2" fill="#f4f4f4"/>
  <ellipse cx="54" cy="58" rx="1" ry="2" fill="#f4f4f4"/>
  <ellipse cx="38" cy="55" rx="1" ry="2" fill="#f4f4f4"/>
  <ellipse cx="62" cy="55" rx="1" ry="2" fill="#f4f4f4"/>
  
  <!-- Plate edge -->
  <ellipse cx="50" cy="75" rx="32" ry="8" fill="#8b4a9c" opacity="0.3"/>
</svg>