<svg width="100" height="100" viewBox="0 0 100 100" xmlns="http://www.w3.org/2000/svg">
  <!-- Sugar Skull 3 - Floral pattern skull -->
  <defs>
    <radialGradient id="bg7" cx="50%" cy="50%" r="50%">
      <stop offset="0%" style="stop-color:#2d1b2d"/>
      <stop offset="100%" style="stop-color:#1a0d1a"/>
    </radialGradient>
  </defs>
  
  <!-- Background -->
  <rect width="100" height="100" fill="url(#bg7)" rx="8"/>
  
  <!-- Main skull -->
  <ellipse cx="50" cy="52" rx="26" ry="32" fill="#f4f4f4"/>
  
  <!-- Eye sockets with petal patterns -->
  <circle cx="41" cy="43" r="8" fill="#1a0d1a"/>
  <circle cx="59" cy="43" r="8" fill="#1a0d1a"/>
  <!-- Flower petals in eyes -->
  <circle cx="41" cy="40" r="3" fill="#ff6b35"/>
  <circle cx="38" cy="43" r="3" fill="#ff6b35"/>
  <circle cx="44" cy="43" r="3" fill="#ff6b35"/>
  <circle cx="41" cy="46" r="3" fill="#ff6b35"/>
  <circle cx="59" cy="40" r="3" fill="#ff6b35"/>
  <circle cx="56" cy="43" r="3" fill="#ff6b35"/>
  <circle cx="62" cy="43" r="3" fill="#ff6b35"/>
  <circle cx="59" cy="46" r="3" fill="#ff6b35"/>
  
  <!-- Nose -->
  <ellipse cx="50" cy="55" rx="4" ry="6" fill="#1a0d1a"/>
  
  <!-- Mouth with vine pattern -->
  <path d="M38 68 Q50 78 62 68" stroke="#1a0d1a" stroke-width="3" fill="none"/>
  <path d="M40 70 Q45 65 50 70 Q55 65 60 70" stroke="#8b4a9c" stroke-width="2" fill="none"/>
  <circle cx="42" cy="70" r="2" fill="#ff6b35"/>
  <circle cx="50" cy="68" r="2" fill="#ff6b35"/>
  <circle cx="58" cy="70" r="2" fill="#ff6b35"/>
  
  <!-- Forehead flower -->
  <circle cx="50" cy="28" r="5" fill="#ff6b35"/>
  <circle cx="45" cy="30" r="3" fill="#8b4a9c"/>
  <circle cx="55" cy="30" r="3" fill="#8b4a9c"/>
  <circle cx="50" cy="33" r="3" fill="#8b4a9c"/>
  <circle cx="50" cy="23" r="3" fill="#8b4a9c"/>
  
  <!-- Side vines -->
  <path d="M28 45 Q32 40 28 35 Q32 30 28 25" stroke="#8b4a9c" stroke-width="2" fill="none"/>
  <path d="M72 45 Q68 40 72 35 Q68 30 72 25" stroke="#8b4a9c" stroke-width="2" fill="none"/>
  <circle cx="30" cy="35" r="2" fill="#ff6b35"/>
  <circle cx="70" cy="35" r="2" fill="#ff6b35"/>
</svg>