<svg width="100" height="100" viewBox="0 0 100 100" xmlns="http://www.w3.org/2000/svg">
  <!-- Sugar Skull 1 - Traditional decorated skull -->
  <defs>
    <radialGradient id="bg5" cx="50%" cy="50%" r="50%">
      <stop offset="0%" style="stop-color:#2d1b2d"/>
      <stop offset="100%" style="stop-color:#1a0d1a"/>
    </radialGradient>
  </defs>
  
  <!-- Background -->
  <rect width="100" height="100" fill="url(#bg5)" rx="8"/>
  
  <!-- Main skull -->
  <ellipse cx="50" cy="50" rx="25" ry="30" fill="#f4f4f4"/>
  
  <!-- Eye sockets with flower patterns -->
  <circle cx="40" cy="40" r="8" fill="#1a0d1a"/>
  <circle cx="60" cy="40" r="8" fill="#1a0d1a"/>
  <circle cx="40" cy="40" r="5" fill="#ff6b35"/>
  <circle cx="60" cy="40" r="5" fill="#ff6b35"/>
  <circle cx="40" cy="40" r="2" fill="#8b4a9c"/>
  <circle cx="60" cy="40" r="2" fill="#8b4a9c"/>
  
  <!-- Nose -->
  <path d="M50 50 L46 58 L54 58 Z" fill="#1a0d1a"/>
  
  <!-- Mouth with decorative pattern -->
  <path d="M35 65 Q50 75 65 65" stroke="#1a0d1a" stroke-width="3" fill="none"/>
  <circle cx="38" cy="67" r="2" fill="#ff6b35"/>
  <circle cx="44" cy="70" r="2" fill="#8b4a9c"/>
  <circle cx="50" cy="72" r="2" fill="#ff6b35"/>
  <circle cx="56" cy="70" r="2" fill="#8b4a9c"/>
  <circle cx="62" cy="67" r="2" fill="#ff6b35"/>
  
  <!-- Forehead decoration -->
  <path d="M50 25 Q45 30 50 35 Q55 30 50 25" fill="#ff6b35"/>
  <circle cx="50" cy="30" r="2" fill="#8b4a9c"/>
  
  <!-- Side decorations -->
  <path d="M30 50 Q25 45 30 40" stroke="#8b4a9c" stroke-width="2" fill="none"/>
  <path d="M70 50 Q75 45 70 40" stroke="#8b4a9c" stroke-width="2" fill="none"/>
  
  <!-- Bottom decoration -->
  <rect x="45" y="78" width="10" height="4" fill="#ff6b35"/>
</svg>