<svg width="100" height="100" viewBox="0 0 100 100" xmlns="http://www.w3.org/2000/svg">
  <!-- Sugar Skull 4 - Swirl pattern skull -->
  <defs>
    <radialGradient id="bg8" cx="50%" cy="50%" r="50%">
      <stop offset="0%" style="stop-color:#2d1b2d"/>
      <stop offset="100%" style="stop-color:#1a0d1a"/>
    </radialGradient>
  </defs>
  
  <!-- Background -->
  <rect width="100" height="100" fill="url(#bg8)" rx="8"/>
  
  <!-- Main skull -->
  <ellipse cx="50" cy="50" rx="25" ry="30" fill="#f4f4f4"/>
  
  <!-- Eye sockets with spiral patterns -->
  <circle cx="40" cy="40" r="8" fill="#1a0d1a"/>
  <circle cx="60" cy="40" r="8" fill="#1a0d1a"/>
  <path d="M40 36 Q44 36 44 40 Q44 44 40 44 Q36 44 36 40 Q36 38 38 38" stroke="#ff6b35" stroke-width="2" fill="none"/>
  <path d="M60 36 Q64 36 64 40 Q64 44 60 44 Q56 44 56 40 Q56 38 58 38" stroke="#ff6b35" stroke-width="2" fill="none"/>
  
  <!-- Nose -->
  <path d="M50 50 L46 57 L54 57 Z" fill="#1a0d1a"/>
  
  <!-- Mouth with decorative swirls -->
  <path d="M35 65 Q50 75 65 65" stroke="#1a0d1a" stroke-width="3" fill="none"/>
  <path d="M38 67 Q42 63 46 67" stroke="#8b4a9c" stroke-width="2" fill="none"/>
  <path d="M54 67 Q58 63 62 67" stroke="#8b4a9c" stroke-width="2" fill="none"/>
  
  <!-- Forehead swirl -->
  <path d="M50 25 Q55 25 55 30 Q55 35 50 35 Q45 35 45 30 Q45 27 47 27" stroke="#ff6b35" stroke-width="3" fill="none"/>
  
  <!-- Cheek swirls -->
  <path d="M30 50 Q35 50 35 55 Q35 60 30 60 Q25 60 25 55 Q25 52 27 52" stroke="#8b4a9c" stroke-width="2" fill="none"/>
  <path d="M70 50 Q75 50 75 55 Q75 60 70 60 Q65 60 65 55 Q65 52 67 52" stroke="#8b4a9c" stroke-width="2" fill="none"/>
  
  <!-- Bottom decoration -->
  <path d="M40 78 Q45 73 50 78 Q55 73 60 78" stroke="#ff6b35" stroke-width="3" fill="none"/>
</svg>